<?xml version="1.0" standalone="no"?>
<!DOCTYPE svg PUBLIC "-//W3C//DTD SVG 20010904//EN"
 "http://www.w3.org/TR/2001/REC-SVG-20010904/DTD/svg10.dtd">
<svg version="1.0" xmlns="http://www.w3.org/2000/svg"
 width="113.000000pt" height="113.000000pt" viewBox="0 0 113.000000 113.000000"
 preserveAspectRatio="xMidYMid meet">
<metadata>
Created by potrace 1.11, written by Peter Selinger 2001-2013
</metadata>
<g transform="translate(0.000000,113.000000) scale(0.100000,-0.100000)"
fill="#000000" stroke="none">
<path d="M784 983 c-9 -21 -20 -66 -26 -100 l-11 -62 -21 27 c-41 53 -62 68
-101 73 -5 1 -20 5 -33 10 -13 5 -21 5 -18 1 2 -4 -4 -8 -14 -8 -10 0 -16 5
-13 10 4 5 -1 7 -10 3 -9 -3 -19 -1 -23 4 -3 6 -17 9 -30 6 -13 -2 -24 0 -24
6 0 9 -38 5 -72 -8 -17 -7 -19 7 -4 35 4 8 -5 2 -20 -15 -16 -17 -29 -25 -31
-18 -2 6 -23 -9 -45 -33 -23 -24 -38 -47 -35 -50 9 -9 -16 -32 -30 -27 -6 2
-14 -5 -18 -16 -3 -12 -10 -21 -14 -21 -14 0 -61 -79 -68 -112 -4 -20 -3 -29
4 -25 8 5 8 -5 1 -31 -5 -20 -10 -47 -11 -58 -1 -14 -6 -20 -15 -17 -10 4 -12
-4 -9 -36 3 -35 0 -43 -20 -57 -15 -9 -35 -13 -48 -10 l-23 6 -2 -170 -1 -170
566 0 565 0 0 451 0 450 -62 -2 c-35 -1 -69 -7 -77 -13 -11 -8 -13 -8 -7 2 5
9 -15 12 -88 12 l-96 0 -16 -37z"/>
</g>
</svg>
